<mxfile host="app.diagrams.net" agent="Mozilla/5.0 (X11; Linux x86_64) AppleWebKit/537.36 (KHTML, like Gecko) Chrome/130.0.0.0 Safari/537.36" version="28.2.1">
  <diagram name="Page-1" id="7J5VbkgxUuM1WTPjkZ29">
    <mxGraphModel dx="5705" dy="666" grid="1" gridSize="10" guides="1" tooltips="1" connect="1" arrows="1" fold="1" page="1" pageScale="1" pageWidth="4681" pageHeight="3300" math="0" shadow="0">
      <root>
        <mxCell id="0" />
        <mxCell id="1" parent="0" />
        <mxCell id="bhUfJU7zfK5Zv-lmQXys-1" value="Changes in reindeer herding in connection with the Kaunisvaara mine" style="swimlane;fontStyle=0;childLayout=stackLayout;horizontal=1;startSize=40;strokeColor=#DAEEF3;strokeWidth=3;fillColor=none;horizontalStack=0;resizeParent=1;resizeParentMax=0;resizeLast=0;collapsible=1;marginBottom=0;whiteSpace=wrap;html=1;" vertex="1" parent="1">
          <mxGeometry x="240" y="270" width="230" height="66" as="geometry" />
        </mxCell>
        <mxCell id="bhUfJU7zfK5Zv-lmQXys-2" value="Record" style="text;strokeColor=#DAEEF3;strokeWidth=3;fillColor=none;align=center;verticalAlign=top;spacingLeft=4;spacingRight=4;overflow=hidden;rotatable=0;points=[[0,0.5],[1,0.5]];portConstraint=eastwest;whiteSpace=wrap;html=1;" vertex="1" parent="bhUfJU7zfK5Zv-lmQXys-1">
          <mxGeometry y="40" width="230" height="26" as="geometry" />
        </mxCell>
        <mxCell id="bhUfJU7zfK5Zv-lmQXys-7" value="Reindeer herding along a certain traditional route in Kokkovuoma" style="swimlane;fontStyle=0;childLayout=stackLayout;horizontal=1;startSize=42;strokeColor=#FFFAA0;strokeWidth=3;fillColor=none;horizontalStack=0;resizeParent=1;resizeParentMax=0;resizeLast=0;collapsible=1;marginBottom=0;whiteSpace=wrap;html=1;" vertex="1" parent="1">
          <mxGeometry x="650" y="268" width="220" height="68" as="geometry" />
        </mxCell>
        <mxCell id="bhUfJU7zfK5Zv-lmQXys-8" value="Activity" style="text;strokeColor=#FFFAA0;strokeWidth=3;fillColor=none;align=center;verticalAlign=top;spacingLeft=4;spacingRight=4;overflow=hidden;rotatable=0;points=[[0,0.5],[1,0.5]];portConstraint=eastwest;whiteSpace=wrap;html=1;" vertex="1" parent="bhUfJU7zfK5Zv-lmQXys-7">
          <mxGeometry y="42" width="220" height="26" as="geometry" />
        </mxCell>
        <mxCell id="bhUfJU7zfK5Zv-lmQXys-9" value="" style="endArrow=classic;html=1;rounded=0;exitX=1;exitY=0.5;exitDx=0;exitDy=0;entryX=0;entryY=0.5;entryDx=0;entryDy=0;" edge="1" parent="1" source="bhUfJU7zfK5Zv-lmQXys-1" target="bhUfJU7zfK5Zv-lmQXys-7">
          <mxGeometry relative="1" as="geometry">
            <mxPoint x="550" y="260" as="sourcePoint" />
            <mxPoint x="690" y="260" as="targetPoint" />
          </mxGeometry>
        </mxCell>
        <mxCell id="bhUfJU7zfK5Zv-lmQXys-10" value="documents" style="edgeLabel;resizable=0;html=1;;align=center;verticalAlign=middle;" connectable="0" vertex="1" parent="bhUfJU7zfK5Zv-lmQXys-9">
          <mxGeometry relative="1" as="geometry" />
        </mxCell>
        <mxCell id="bhUfJU7zfK5Zv-lmQXys-11" value="Gathering of data on the impact of the Kaunisvaara mine upon reindeer herding for a research article" style="swimlane;fontStyle=0;childLayout=stackLayout;horizontal=1;startSize=40;strokeColor=#FFFAA0;strokeWidth=3;fillColor=none;horizontalStack=0;resizeParent=1;resizeParentMax=0;resizeLast=0;collapsible=1;marginBottom=0;whiteSpace=wrap;html=1;" vertex="1" parent="1">
          <mxGeometry x="205" y="20" width="300" height="66" as="geometry" />
        </mxCell>
        <mxCell id="bhUfJU7zfK5Zv-lmQXys-12" value="Activity" style="text;strokeColor=#FFFAA0;strokeWidth=3;fillColor=none;align=center;verticalAlign=top;spacingLeft=4;spacingRight=4;overflow=hidden;rotatable=0;points=[[0,0.5],[1,0.5]];portConstraint=eastwest;whiteSpace=wrap;html=1;" vertex="1" parent="bhUfJU7zfK5Zv-lmQXys-11">
          <mxGeometry y="40" width="300" height="26" as="geometry" />
        </mxCell>
        <mxCell id="bhUfJU7zfK5Zv-lmQXys-13" value="" style="endArrow=classic;html=1;rounded=0;exitX=0.503;exitY=1.077;exitDx=0;exitDy=0;exitPerimeter=0;entryX=0.5;entryY=0;entryDx=0;entryDy=0;" edge="1" parent="1" source="bhUfJU7zfK5Zv-lmQXys-12" target="bhUfJU7zfK5Zv-lmQXys-1">
          <mxGeometry relative="1" as="geometry">
            <mxPoint x="470" y="231" as="sourcePoint" />
            <mxPoint x="350" y="260" as="targetPoint" />
          </mxGeometry>
        </mxCell>
        <mxCell id="bhUfJU7zfK5Zv-lmQXys-14" value="results or resulted in" style="edgeLabel;resizable=0;html=1;;align=center;verticalAlign=middle;" connectable="0" vertex="1" parent="bhUfJU7zfK5Zv-lmQXys-13">
          <mxGeometry relative="1" as="geometry" />
        </mxCell>
        <mxCell id="bhUfJU7zfK5Zv-lmQXys-15" value="" style="endArrow=classic;html=1;rounded=0;exitX=0.5;exitY=1.077;exitDx=0;exitDy=0;exitPerimeter=0;" edge="1" parent="1" source="bhUfJU7zfK5Zv-lmQXys-2" target="bhUfJU7zfK5Zv-lmQXys-50">
          <mxGeometry relative="1" as="geometry">
            <mxPoint x="270" y="450" as="sourcePoint" />
            <mxPoint x="355" y="420" as="targetPoint" />
          </mxGeometry>
        </mxCell>
        <mxCell id="bhUfJU7zfK5Zv-lmQXys-16" value="has creator" style="edgeLabel;resizable=0;html=1;;align=center;verticalAlign=middle;" connectable="0" vertex="1" parent="bhUfJU7zfK5Zv-lmQXys-15">
          <mxGeometry relative="1" as="geometry" />
        </mxCell>
        <mxCell id="bhUfJU7zfK5Zv-lmQXys-19" value="SÃ¡mi people" style="swimlane;fontStyle=0;childLayout=stackLayout;horizontal=1;startSize=26;strokeColor=#C6D9F1;strokeWidth=2;fillColor=none;horizontalStack=0;resizeParent=1;resizeParentMax=0;resizeLast=0;collapsible=1;marginBottom=0;whiteSpace=wrap;html=1;" vertex="1" parent="1">
          <mxGeometry x="530" y="150" width="109" height="52" as="geometry" />
        </mxCell>
        <mxCell id="bhUfJU7zfK5Zv-lmQXys-20" value="Group&lt;div&gt;&lt;br&gt;&lt;/div&gt;" style="text;strokeColor=#C6D9F1;strokeWidth=2;fillColor=#C6D9F1;align=center;verticalAlign=top;spacingLeft=4;spacingRight=4;overflow=hidden;rotatable=0;points=[[0,0.5],[1,0.5]];portConstraint=eastwest;whiteSpace=wrap;html=1;" vertex="1" parent="bhUfJU7zfK5Zv-lmQXys-19">
          <mxGeometry y="26" width="109" height="26" as="geometry" />
        </mxCell>
        <mxCell id="bhUfJU7zfK5Zv-lmQXys-21" value="" style="endArrow=classic;html=1;rounded=0;exitX=1;exitY=1;exitDx=0;exitDy=0;entryX=1;entryY=1;entryDx=0;entryDy=0;" edge="1" parent="1" target="bhUfJU7zfK5Zv-lmQXys-19">
          <mxGeometry relative="1" as="geometry">
            <mxPoint x="750" y="270" as="sourcePoint" />
            <mxPoint x="764" y="420" as="targetPoint" />
          </mxGeometry>
        </mxCell>
        <mxCell id="bhUfJU7zfK5Zv-lmQXys-22" value="is event associated with" style="edgeLabel;resizable=0;html=1;;align=center;verticalAlign=middle;" connectable="0" vertex="1" parent="bhUfJU7zfK5Zv-lmQXys-21">
          <mxGeometry relative="1" as="geometry" />
        </mxCell>
        <mxCell id="bhUfJU7zfK5Zv-lmQXys-23" value="Kokkovuoma" style="swimlane;fontStyle=0;childLayout=stackLayout;horizontal=1;startSize=26;strokeColor=#FAA0A0;strokeWidth=2;fillColor=none;horizontalStack=0;resizeParent=1;resizeParentMax=0;resizeLast=0;collapsible=1;marginBottom=0;whiteSpace=wrap;html=1;" vertex="1" parent="1">
          <mxGeometry x="880" y="150" width="90" height="52" as="geometry" />
        </mxCell>
        <mxCell id="bhUfJU7zfK5Zv-lmQXys-24" value="Place" style="text;strokeColor=#FAA0A0;strokeWidth=2;fillColor=#FAA0A0;align=center;verticalAlign=top;spacingLeft=4;spacingRight=4;overflow=hidden;rotatable=0;points=[[0,0.5],[1,0.5]];portConstraint=eastwest;whiteSpace=wrap;html=1;" vertex="1" parent="bhUfJU7zfK5Zv-lmQXys-23">
          <mxGeometry y="26" width="90" height="26" as="geometry" />
        </mxCell>
        <mxCell id="bhUfJU7zfK5Zv-lmQXys-25" value="" style="endArrow=classic;html=1;rounded=0;entryX=0.677;entryY=0.015;entryDx=0;entryDy=0;entryPerimeter=0;exitX=0.5;exitY=1;exitDx=0;exitDy=0;" edge="1" parent="1" source="bhUfJU7zfK5Zv-lmQXys-23" target="bhUfJU7zfK5Zv-lmQXys-7">
          <mxGeometry relative="1" as="geometry">
            <mxPoint x="910" y="190" as="sourcePoint" />
            <mxPoint x="749" y="313" as="targetPoint" />
          </mxGeometry>
        </mxCell>
        <mxCell id="bhUfJU7zfK5Zv-lmQXys-26" value="is or was location of" style="edgeLabel;resizable=0;html=1;;align=center;verticalAlign=middle;" connectable="0" vertex="1" parent="bhUfJU7zfK5Zv-lmQXys-25">
          <mxGeometry relative="1" as="geometry" />
        </mxCell>
        <mxCell id="bhUfJU7zfK5Zv-lmQXys-33" value="Kaunisvaara mine" style="swimlane;fontStyle=0;childLayout=stackLayout;horizontal=1;startSize=26;strokeColor=#FBD5B5;fillColor=none;horizontalStack=0;resizeParent=1;resizeParentMax=0;resizeLast=0;collapsible=1;marginBottom=0;whiteSpace=wrap;html=1;" vertex="1" parent="1">
          <mxGeometry x="770" y="27" width="110" height="52" as="geometry" />
        </mxCell>
        <mxCell id="bhUfJU7zfK5Zv-lmQXys-34" value="Thing" style="text;strokeColor=#FBD5B5;fillColor=#FBD5B5;align=center;verticalAlign=top;spacingLeft=4;spacingRight=4;overflow=hidden;rotatable=0;points=[[0,0.5],[1,0.5]];portConstraint=eastwest;whiteSpace=wrap;html=1;" vertex="1" parent="bhUfJU7zfK5Zv-lmQXys-33">
          <mxGeometry y="26" width="110" height="26" as="geometry" />
        </mxCell>
        <mxCell id="bhUfJU7zfK5Zv-lmQXys-35" value="" style="endArrow=classic;html=1;rounded=0;exitX=0;exitY=0;exitDx=0;exitDy=0;entryX=0.5;entryY=1;entryDx=0;entryDy=0;" edge="1" parent="1" source="bhUfJU7zfK5Zv-lmQXys-23" target="bhUfJU7zfK5Zv-lmQXys-33">
          <mxGeometry relative="1" as="geometry">
            <mxPoint x="915.5" y="110" as="sourcePoint" />
            <mxPoint x="814.5" y="197" as="targetPoint" />
          </mxGeometry>
        </mxCell>
        <mxCell id="bhUfJU7zfK5Zv-lmQXys-36" value="is or was location of" style="edgeLabel;resizable=0;html=1;;align=center;verticalAlign=middle;" connectable="0" vertex="1" parent="bhUfJU7zfK5Zv-lmQXys-35">
          <mxGeometry relative="1" as="geometry" />
        </mxCell>
        <mxCell id="bhUfJU7zfK5Zv-lmQXys-37" value="" style="endArrow=classic;html=1;rounded=0;exitX=1;exitY=0.5;exitDx=0;exitDy=0;entryX=-0.018;entryY=0.077;entryDx=0;entryDy=0;entryPerimeter=0;" edge="1" parent="1" source="bhUfJU7zfK5Zv-lmQXys-11" target="bhUfJU7zfK5Zv-lmQXys-34">
          <mxGeometry relative="1" as="geometry">
            <mxPoint x="531" y="43" as="sourcePoint" />
            <mxPoint x="690" y="60" as="targetPoint" />
          </mxGeometry>
        </mxCell>
        <mxCell id="bhUfJU7zfK5Zv-lmQXys-38" value="is event associated with" style="edgeLabel;resizable=0;html=1;;align=center;verticalAlign=middle;" connectable="0" vertex="1" parent="bhUfJU7zfK5Zv-lmQXys-37">
          <mxGeometry relative="1" as="geometry" />
        </mxCell>
        <mxCell id="bhUfJU7zfK5Zv-lmQXys-40" value="" style="endArrow=classic;html=1;rounded=0;exitX=0.839;exitY=-0.045;exitDx=0;exitDy=0;exitPerimeter=0;entryX=0;entryY=1;entryDx=0;entryDy=0;" edge="1" parent="1" source="bhUfJU7zfK5Zv-lmQXys-1" target="bhUfJU7zfK5Zv-lmQXys-19">
          <mxGeometry relative="1" as="geometry">
            <mxPoint x="430" y="230" as="sourcePoint" />
            <mxPoint x="430" y="312" as="targetPoint" />
          </mxGeometry>
        </mxCell>
        <mxCell id="bhUfJU7zfK5Zv-lmQXys-41" value="has author" style="edgeLabel;resizable=0;html=1;;align=center;verticalAlign=middle;" connectable="0" vertex="1" parent="bhUfJU7zfK5Zv-lmQXys-40">
          <mxGeometry relative="1" as="geometry" />
        </mxCell>
        <mxCell id="bhUfJU7zfK5Zv-lmQXys-42" value="" style="endArrow=classic;html=1;rounded=0;exitX=0.733;exitY=1.077;exitDx=0;exitDy=0;exitPerimeter=0;entryX=0.5;entryY=0;entryDx=0;entryDy=0;" edge="1" parent="1" source="bhUfJU7zfK5Zv-lmQXys-12" target="bhUfJU7zfK5Zv-lmQXys-19">
          <mxGeometry relative="1" as="geometry">
            <mxPoint x="420" y="126" as="sourcePoint" />
            <mxPoint x="772" y="131" as="targetPoint" />
          </mxGeometry>
        </mxCell>
        <mxCell id="bhUfJU7zfK5Zv-lmQXys-43" value="has or had participant" style="edgeLabel;resizable=0;html=1;;align=center;verticalAlign=middle;" connectable="0" vertex="1" parent="bhUfJU7zfK5Zv-lmQXys-42">
          <mxGeometry relative="1" as="geometry" />
        </mxCell>
        <mxCell id="bhUfJU7zfK5Zv-lmQXys-44" value="" style="endArrow=classic;html=1;rounded=0;exitX=0;exitY=0.5;exitDx=0;exitDy=0;entryX=1;entryY=0.5;entryDx=0;entryDy=0;" edge="1" parent="1" source="bhUfJU7zfK5Zv-lmQXys-23" target="bhUfJU7zfK5Zv-lmQXys-19">
          <mxGeometry relative="1" as="geometry">
            <mxPoint x="791" y="218" as="sourcePoint" />
            <mxPoint x="680" y="150" as="targetPoint" />
          </mxGeometry>
        </mxCell>
        <mxCell id="bhUfJU7zfK5Zv-lmQXys-45" value="is place associated with" style="edgeLabel;resizable=0;html=1;;align=center;verticalAlign=middle;" connectable="0" vertex="1" parent="bhUfJU7zfK5Zv-lmQXys-44">
          <mxGeometry relative="1" as="geometry" />
        </mxCell>
        <mxCell id="bhUfJU7zfK5Zv-lmQXys-46" value="Muonio Reindeer Herding District" style="swimlane;fontStyle=0;childLayout=stackLayout;horizontal=1;startSize=26;strokeColor=#C6D9F1;strokeWidth=3;fillColor=none;horizontalStack=0;resizeParent=1;resizeParentMax=0;resizeLast=0;collapsible=1;marginBottom=0;whiteSpace=wrap;html=1;" vertex="1" parent="1">
          <mxGeometry x="1080" y="27" width="190" height="52" as="geometry" />
        </mxCell>
        <mxCell id="bhUfJU7zfK5Zv-lmQXys-47" value="Corporate Body" style="text;strokeColor=#C6D9F1;strokeWidth=3;fillColor=none;align=center;verticalAlign=top;spacingLeft=4;spacingRight=4;overflow=hidden;rotatable=0;points=[[0,0.5],[1,0.5]];portConstraint=eastwest;whiteSpace=wrap;html=1;" vertex="1" parent="bhUfJU7zfK5Zv-lmQXys-46">
          <mxGeometry y="26" width="190" height="26" as="geometry" />
        </mxCell>
        <mxCell id="bhUfJU7zfK5Zv-lmQXys-48" value="" style="endArrow=classic;html=1;rounded=0;exitX=-0.005;exitY=1.115;exitDx=0;exitDy=0;entryX=1;entryY=0;entryDx=0;entryDy=0;exitPerimeter=0;" edge="1" parent="1" source="bhUfJU7zfK5Zv-lmQXys-47" target="bhUfJU7zfK5Zv-lmQXys-23">
          <mxGeometry relative="1" as="geometry">
            <mxPoint x="1080" y="241" as="sourcePoint" />
            <mxPoint x="1025" y="170" as="targetPoint" />
          </mxGeometry>
        </mxCell>
        <mxCell id="bhUfJU7zfK5Zv-lmQXys-49" value="has or had jurisdiction" style="edgeLabel;resizable=0;html=1;;align=center;verticalAlign=middle;" connectable="0" vertex="1" parent="bhUfJU7zfK5Zv-lmQXys-48">
          <mxGeometry relative="1" as="geometry" />
        </mxCell>
        <mxCell id="bhUfJU7zfK5Zv-lmQXys-50" value="Authors of the research article;&amp;nbsp;&lt;i&gt;The impacts of mining on SÃ¡mi lands: A knowledge synthesis from three reindeer herding districts&lt;/i&gt;" style="swimlane;fontStyle=0;childLayout=stackLayout;horizontal=1;startSize=50;strokeColor=#C6D9F1;strokeWidth=2;fillColor=none;horizontalStack=0;resizeParent=1;resizeParentMax=0;resizeLast=0;collapsible=1;marginBottom=0;whiteSpace=wrap;html=1;" vertex="1" parent="1">
          <mxGeometry x="220" y="430" width="270" height="76" as="geometry" />
        </mxCell>
        <mxCell id="bhUfJU7zfK5Zv-lmQXys-51" value="Group&lt;div&gt;&lt;br&gt;&lt;/div&gt;" style="text;strokeColor=#C6D9F1;strokeWidth=2;fillColor=#C6D9F1;align=center;verticalAlign=top;spacingLeft=4;spacingRight=4;overflow=hidden;rotatable=0;points=[[0,0.5],[1,0.5]];portConstraint=eastwest;whiteSpace=wrap;html=1;" vertex="1" parent="bhUfJU7zfK5Zv-lmQXys-50">
          <mxGeometry y="50" width="270" height="26" as="geometry" />
        </mxCell>
        <mxCell id="bhUfJU7zfK5Zv-lmQXys-52" value="" style="endArrow=classic;html=1;rounded=0;curved=1;entryX=1;entryY=0.5;entryDx=0;entryDy=0;exitX=0.5;exitY=1.115;exitDx=0;exitDy=0;exitPerimeter=0;" edge="1" parent="1" source="bhUfJU7zfK5Zv-lmQXys-47" target="bhUfJU7zfK5Zv-lmQXys-50">
          <mxGeometry relative="1" as="geometry">
            <mxPoint x="1170" y="100" as="sourcePoint" />
            <mxPoint x="460" y="460" as="targetPoint" />
            <Array as="points">
              <mxPoint x="1050" y="460" />
            </Array>
          </mxGeometry>
        </mxCell>
        <mxCell id="bhUfJU7zfK5Zv-lmQXys-53" value="is or was member of" style="edgeLabel;resizable=0;html=1;;align=center;verticalAlign=middle;" connectable="0" vertex="1" parent="bhUfJU7zfK5Zv-lmQXys-52">
          <mxGeometry relative="1" as="geometry">
            <mxPoint x="-59" y="-71" as="offset" />
          </mxGeometry>
        </mxCell>
        <mxCell id="bhUfJU7zfK5Zv-lmQXys-54" value="Use of interactive maps (GIS) to indicate changes in reindeer herding routes in connection with the Kaunisvaara mine" style="swimlane;fontStyle=0;childLayout=stackLayout;horizontal=1;startSize=52;strokeColor=#FFFAA0;strokeWidth=3;fillColor=none;horizontalStack=0;resizeParent=1;resizeParentMax=0;resizeLast=0;collapsible=1;marginBottom=0;whiteSpace=wrap;html=1;" vertex="1" parent="1">
          <mxGeometry x="-100" y="120" width="220" height="78" as="geometry" />
        </mxCell>
        <mxCell id="bhUfJU7zfK5Zv-lmQXys-55" value="Activity" style="text;strokeColor=#FFFAA0;strokeWidth=3;fillColor=none;align=center;verticalAlign=top;spacingLeft=4;spacingRight=4;overflow=hidden;rotatable=0;points=[[0,0.5],[1,0.5]];portConstraint=eastwest;whiteSpace=wrap;html=1;" vertex="1" parent="bhUfJU7zfK5Zv-lmQXys-54">
          <mxGeometry y="52" width="220" height="26" as="geometry" />
        </mxCell>
        <mxCell id="bhUfJU7zfK5Zv-lmQXys-60" value="Conducting of interviews and follow-up meetings to understand changes in reindeer herding routes in connection with the Kaunisvaara mine" style="swimlane;fontStyle=0;childLayout=stackLayout;horizontal=1;startSize=52;strokeColor=#FFFAA0;strokeWidth=3;fillColor=none;horizontalStack=0;resizeParent=1;resizeParentMax=0;resizeLast=0;collapsible=1;marginBottom=0;whiteSpace=wrap;html=1;" vertex="1" parent="1">
          <mxGeometry x="-110" y="250" width="260" height="78" as="geometry" />
        </mxCell>
        <mxCell id="bhUfJU7zfK5Zv-lmQXys-61" value="Activity" style="text;strokeColor=#FFFAA0;strokeWidth=3;fillColor=none;align=center;verticalAlign=top;spacingLeft=4;spacingRight=4;overflow=hidden;rotatable=0;points=[[0,0.5],[1,0.5]];portConstraint=eastwest;whiteSpace=wrap;html=1;" vertex="1" parent="bhUfJU7zfK5Zv-lmQXys-60">
          <mxGeometry y="52" width="260" height="26" as="geometry" />
        </mxCell>
        <mxCell id="bhUfJU7zfK5Zv-lmQXys-62" value="" style="endArrow=classic;html=1;rounded=0;exitX=0.5;exitY=0;exitDx=0;exitDy=0;entryX=0;entryY=0.5;entryDx=0;entryDy=0;" edge="1" parent="1" source="bhUfJU7zfK5Zv-lmQXys-54" target="bhUfJU7zfK5Zv-lmQXys-11">
          <mxGeometry relative="1" as="geometry">
            <mxPoint x="71" y="27" as="sourcePoint" />
            <mxPoint x="70" y="209" as="targetPoint" />
          </mxGeometry>
        </mxCell>
        <mxCell id="bhUfJU7zfK5Zv-lmQXys-63" value="is or was subevent of" style="edgeLabel;resizable=0;html=1;;align=center;verticalAlign=middle;" connectable="0" vertex="1" parent="bhUfJU7zfK5Zv-lmQXys-62">
          <mxGeometry relative="1" as="geometry" />
        </mxCell>
        <mxCell id="bhUfJU7zfK5Zv-lmQXys-64" value="" style="endArrow=classic;html=1;rounded=0;exitX=0.883;exitY=0.051;exitDx=0;exitDy=0;exitPerimeter=0;" edge="1" parent="1" source="bhUfJU7zfK5Zv-lmQXys-60">
          <mxGeometry relative="1" as="geometry">
            <mxPoint x="90" y="250" as="sourcePoint" />
            <mxPoint x="280" y="89" as="targetPoint" />
          </mxGeometry>
        </mxCell>
        <mxCell id="bhUfJU7zfK5Zv-lmQXys-65" value="is or was subevent of" style="edgeLabel;resizable=0;html=1;;align=center;verticalAlign=middle;" connectable="0" vertex="1" parent="bhUfJU7zfK5Zv-lmQXys-64">
          <mxGeometry relative="1" as="geometry" />
        </mxCell>
      </root>
    </mxGraphModel>
  </diagram>
</mxfile>
